<svg xmlns="http://www.w3.org/2000/svg" width="32" height="32" viewBox="0 0 32 32">
  <defs>
    <linearGradient id="grad" x1="0%" y1="0%" x2="100%" y2="100%">
      <stop offset="0%" stop-color="#8A2BE2" />
      <stop offset="100%" stop-color="#4A00E0" />
    </linearGradient>
  </defs>
  <rect width="32" height="32" rx="8" fill="#0A0A0F"/>
  <path d="M8 16C8 11.6 11.6 8 16 8C20.4 8 24 11.6 24 16C24 17.8 23.4 19.5 22.4 20.9L18 16.5L18 11C18 10.4 17.6 10 17 10C16.4 10 16 10.4 16 11L16 17L21.2 22.2C19.7 23.3 17.9 24 16 24C11.6 24 8 20.4 8 16Z" fill="url(#grad)"/>
</svg>
